<svg id="Calque_1" data-name="Calque 1" xmlns="http://www.w3.org/2000/svg" viewBox="0 0 182.03 71.7"><defs><style>.cls-1{fill:#1d1d1b;}.cls-2{fill:#f7a608;}</style></defs><path class="cls-1" d="M69.85,41v3a6.47,6.47,0,0,1-1.19,4.18,4.93,4.93,0,0,1-7,0,6.46,6.46,0,0,1-1.18-4.18V32.28a6.45,6.45,0,0,1,1.18-4.17,4.93,4.93,0,0,1,7,0,6.45,6.45,0,0,1,1.19,4.17v2.18h-3v-2.4a2.62,2.62,0,0,0-.45-1.71,1.67,1.67,0,0,0-1.18-.5,1.71,1.71,0,0,0-1.19.5,2.61,2.61,0,0,0-.44,1.71V44.15a2.53,2.53,0,0,0,.44,1.7,1.77,1.77,0,0,0,1.19.48,1.73,1.73,0,0,0,1.18-.48,2.48,2.48,0,0,0,.45-1.7V41Z" transform="translate(-4.86 -10.56)"/><path class="cls-1" d="M81.93,49.31H78.76l-.54-4.06H74.36l-.54,4.06H70.93l3.2-22.4h4.6Zm-7.17-7.1h3L76.27,30.88Z" transform="translate(-4.86 -10.56)"/><path class="cls-1" d="M83,32.28a6.57,6.57,0,0,1,1.15-4.17,4.85,4.85,0,0,1,6.94,0,6.51,6.51,0,0,1,1.16,4.17V33h-3v-.93a2.73,2.73,0,0,0-.41-1.71,1.6,1.6,0,0,0-2.32,0,2.67,2.67,0,0,0-.41,1.71,4.29,4.29,0,0,0,.46,2,8.08,8.08,0,0,0,1.14,1.67q.69.78,1.47,1.56A14.33,14.33,0,0,1,90.67,39a8.94,8.94,0,0,1,1.14,2.11,7.7,7.7,0,0,1,.46,2.78,6.47,6.47,0,0,1-1.19,4.18,4.91,4.91,0,0,1-7,0,6.47,6.47,0,0,1-1.19-4.18V42.56h3v1.6a2.49,2.49,0,0,0,.44,1.69,1.77,1.77,0,0,0,1.19.48,1.73,1.73,0,0,0,1.18-.48,2.44,2.44,0,0,0,.45-1.69,4.45,4.45,0,0,0-.46-2,8.72,8.72,0,0,0-1.14-1.66c-.46-.52-1-1-1.47-1.57a15,15,0,0,1-1.47-1.71,9,9,0,0,1-1.15-2.11A7.74,7.74,0,0,1,83,32.28Z" transform="translate(-4.86 -10.56)"/><path class="cls-1" d="M93.67,32.28a6.51,6.51,0,0,1,1.16-4.17,4.85,4.85,0,0,1,6.94,0,6.57,6.57,0,0,1,1.15,4.17V33h-3v-.93a2.67,2.67,0,0,0-.41-1.71,1.6,1.6,0,0,0-2.32,0,2.73,2.73,0,0,0-.41,1.71,4.41,4.41,0,0,0,.46,2,8.49,8.49,0,0,0,1.14,1.67q.69.78,1.47,1.56A14.33,14.33,0,0,1,101.35,39a8.59,8.59,0,0,1,1.14,2.11,7.49,7.49,0,0,1,.46,2.78,6.46,6.46,0,0,1-1.18,4.18,4.29,4.29,0,0,1-3.5,1.46,4.24,4.24,0,0,1-3.5-1.46,6.47,6.47,0,0,1-1.19-4.18V42.56h3v1.6A2.44,2.44,0,0,0,97,45.85a1.73,1.73,0,0,0,1.18.48,1.77,1.77,0,0,0,1.19-.48,2.49,2.49,0,0,0,.44-1.69,4.45,4.45,0,0,0-.46-2,8.72,8.72,0,0,0-1.14-1.66c-.46-.52-.95-1-1.47-1.57a15,15,0,0,1-1.47-1.71,8.59,8.59,0,0,1-1.14-2.11A7.54,7.54,0,0,1,93.67,32.28Z" transform="translate(-4.86 -10.56)"/><path class="cls-1" d="M107.89,36.35h4.32v3.2h-4.32v6.56h5.43v3.2h-8.57V26.91h8.57v3.2h-5.43Zm7.43,0h4.31v3.2h-4.31Z" transform="translate(-4.86 -10.56)"/><path class="cls-1" d="M132.09,41v3a6.47,6.47,0,0,1-1.19,4.18,4.93,4.93,0,0,1-7,0,6.46,6.46,0,0,1-1.18-4.18V32.28a6.45,6.45,0,0,1,1.18-4.17,4.93,4.93,0,0,1,7,0,6.45,6.45,0,0,1,1.19,4.17v2.18h-3v-2.4a2.62,2.62,0,0,0-.45-1.71,1.65,1.65,0,0,0-2.37,0,2.55,2.55,0,0,0-.44,1.71V44.15a2.53,2.53,0,0,0,.44,1.7,1.7,1.7,0,0,0,2.37,0,2.59,2.59,0,0,0,.45-1.7V41Z" transform="translate(-4.86 -10.56)"/><path class="cls-1" d="M140.48,49.31l-.2-6.27a3.74,3.74,0,0,0-.48-2.21,2,2,0,0,0-.72-.52,1.8,1.8,0,0,0-.85-.12h-1.09l.19,9.12h-3.14L134,26.91h4.74a4.48,4.48,0,0,1,3.56,1.28,5.82,5.82,0,0,1,1.1,3.87v1.76c0,2.31-.69,3.82-2.06,4.55a2.69,2.69,0,0,1,1,.69,3.28,3.28,0,0,1,.65,1.08,9,9,0,0,1,.45,3l.19,6.17Zm-3.34-19.2V37h1.23a1.85,1.85,0,0,0,1.38-.51,2.51,2.51,0,0,0,.42-.87,2.75,2.75,0,0,0,.08-1V32.41a3.07,3.07,0,0,0-.39-1.76,1.36,1.36,0,0,0-.55-.43,1.25,1.25,0,0,0-.66-.11Z" transform="translate(-4.86 -10.56)"/><path class="cls-1" d="M145.22,32.28a6.29,6.29,0,0,1,1.23-4.17,5,5,0,0,1,7.08,0,6.29,6.29,0,0,1,1.23,4.17V43.93a6.3,6.3,0,0,1-1.23,4.18,5,5,0,0,1-7.08,0,6.3,6.3,0,0,1-1.23-4.18Zm3.15,11.88a2.57,2.57,0,0,0,.44,1.71,1.65,1.65,0,0,0,2.37,0,2.57,2.57,0,0,0,.44-1.71V32.06a2.55,2.55,0,0,0-.44-1.71,1.65,1.65,0,0,0-2.37,0,2.55,2.55,0,0,0-.44,1.71Z" transform="translate(-4.86 -10.56)"/><path class="cls-1" d="M159.79,26.91V44.19a2.53,2.53,0,0,0,.44,1.7,1.77,1.77,0,0,0,1.19.48,1.73,1.73,0,0,0,1.18-.48,2.53,2.53,0,0,0,.45-1.7V26.91h3V44a6.45,6.45,0,0,1-1.19,4.17,4.93,4.93,0,0,1-7,0A6.45,6.45,0,0,1,156.65,44V26.91Zm-2.37-1.83L160,20.9h2.83l2.54,4.18h-2.68l-1.29-1.76-1.25,1.76Z" transform="translate(-4.86 -10.56)"/><path class="cls-1" d="M167.25,26.91H177v3.2h-3.29v19.2h-3.14V30.11h-3.28Z" transform="translate(-4.86 -10.56)"/><path class="cls-1" d="M181.47,36.35h4.31v3.2h-4.31v6.56h5.43v3.2h-8.57V26.91h8.57v3.2h-5.43Z" transform="translate(-4.86 -10.56)"/><path class="cls-1" d="M186.9,56.31H60.48V74.67H186.9Z" transform="translate(-4.86 -10.56)"/><path class="cls-1" d="M54.9,43a1.65,1.65,0,0,0,0-.7,1.71,1.71,0,0,0-.28-.63,1.5,1.5,0,0,0-.5-.44,1.31,1.31,0,0,0-.61-.15H51.59L52,36a3.49,3.49,0,0,0-.14-1.29,3.18,3.18,0,0,0-.58-1.11,2.75,2.75,0,0,0-.94-.76,2.47,2.47,0,0,0-1.13-.27H44l.65-12.94a3.5,3.5,0,0,0-.17-1.25,3.24,3.24,0,0,0-.59-1.08,2.81,2.81,0,0,0-.93-.72,2.5,2.5,0,0,0-1.1-.26h-6l0-2.57a3.52,3.52,0,0,0-.19-1.21,3.28,3.28,0,0,0-.61-1,2.75,2.75,0,0,0-.91-.69,2.41,2.41,0,0,0-1.08-.25H26.74a2.41,2.41,0,0,0-1.08.25,2.75,2.75,0,0,0-.91.69,3.28,3.28,0,0,0-.61,1A3.52,3.52,0,0,0,24,13.75L24,19.3H18.25a2.55,2.55,0,0,0-1.11.26,2.65,2.65,0,0,0-.92.72,3.05,3.05,0,0,0-.6,1.07,3.53,3.53,0,0,0-.17,1.25l.27,5.47H10.2a2.51,2.51,0,0,0-1.13.27,2.78,2.78,0,0,0-.93.75,3.54,3.54,0,0,0-.59,1.12,3.45,3.45,0,0,0-.13,1.28l.79,9.56H6.29a1.32,1.32,0,0,0-.62.15,1.47,1.47,0,0,0-.49.44,1.71,1.71,0,0,0-.28.63,1.83,1.83,0,0,0,0,.7l6.79,36.2a4,4,0,0,0,1.21,2.22,3.26,3.26,0,0,0,2.18.87H44.72a3.26,3.26,0,0,0,2.19-.87,4,4,0,0,0,1.21-2.22Z" transform="translate(-4.86 -10.56)"/><path class="cls-2" d="M43.81,35.76h5.36l-.44,5.29H43.55Z" transform="translate(-4.86 -10.56)"/><path class="cls-2" d="M35.75,19.5l6-.05-.73,14.63-.38,7.69a3.48,3.48,0,0,0-.89,1,3.81,3.81,0,0,0-.45,1.37A11.57,11.57,0,0,1,38,48.32a10.3,10.3,0,0,1-2.74,3.15Z" transform="translate(-4.86 -10.56)"/><path class="cls-2" d="M33,13.69l-.07,4.19v0l-.59,35a8.38,8.38,0,0,1-4.91,0l-.53-32.07v0l-.17-7.11Z" transform="translate(-4.86 -10.56)"/><path class="cls-2" d="M24.09,22.49l.49,29a10.09,10.09,0,0,1-2.74-3.16,11.33,11.33,0,0,1-1.37-4.12,3.72,3.72,0,0,0-1.22-2.33l-.61-12.28-.34-7.09Z" transform="translate(-4.86 -10.56)"/><path class="cls-2" d="M15.88,31.26l.49,9.79h-5.3l-.81-9.79Z" transform="translate(-4.86 -10.56)"/><path class="cls-2" d="M45.34,78.52a.72.72,0,0,1-.22.4.59.59,0,0,1-.39.16H15.07a.59.59,0,0,1-.39-.16.72.72,0,0,1-.22-.4L8,44.24H17.2a.32.32,0,0,1,.14,0h0a.37.37,0,0,1,.19.14.55.55,0,0,1,.1.22,14.39,14.39,0,0,0,4.15,8.49,11.37,11.37,0,0,0,16.18,0,14.33,14.33,0,0,0,4.15-8.49.54.54,0,0,1,.17-.29.41.41,0,0,1,.29-.11h9.16Z" transform="translate(-4.86 -10.56)"/><path class="cls-2" d="M79.12,61.57a2,2,0,0,0-1.08.25,2.37,2.37,0,0,0-.84.8,5.33,5.33,0,0,0-.69,2.92c0,2.6.87,3.89,2.61,3.89a7.47,7.47,0,0,0,2.66-.61v2.07a6.62,6.62,0,0,1-2.86.6A4,4,0,0,1,77,71.16,4.4,4.4,0,0,1,75.45,70a7.1,7.1,0,0,1-1.2-4.43,8,8,0,0,1,.59-3.18,4.58,4.58,0,0,1,1.69-2.1,4.66,4.66,0,0,1,2.6-.73,6.59,6.59,0,0,1,3,.82l-.71,2c-.38-.2-.78-.38-1.17-.54A3.17,3.17,0,0,0,79.12,61.57Z" transform="translate(-4.86 -10.56)"/><path class="cls-2" d="M96.49,65.49a6.86,6.86,0,0,1-1.28,4.45,5.12,5.12,0,0,1-7.34,0,6.84,6.84,0,0,1-1.29-4.47A6.72,6.72,0,0,1,87.87,61a4.88,4.88,0,0,1,1.69-1.21,4.39,4.39,0,0,1,2-.32,4.22,4.22,0,0,1,2,.32A4.78,4.78,0,0,1,95.21,61,6.82,6.82,0,0,1,96.49,65.49Zm-7.59,0a5.33,5.33,0,0,0,.66,2.94,2.4,2.4,0,0,0,.88.77,2.09,2.09,0,0,0,1.1.22q2.64,0,2.64-3.93t-2.63-3.94a2.11,2.11,0,0,0-1.1.22,2.41,2.41,0,0,0-.88.77A5.27,5.27,0,0,0,88.9,65.49Z" transform="translate(-4.86 -10.56)"/><path class="cls-2" d="M110.16,59.68v7.54a4.74,4.74,0,0,1-.51,2.26A3.57,3.57,0,0,1,108.16,71a4.91,4.91,0,0,1-2.31.52,4.09,4.09,0,0,1-3.11-1.16,4,4,0,0,1-.86-1.44,4.47,4.47,0,0,1-.25-1.71v-7.5h2.2v7.13a3.2,3.2,0,0,0,.48,2,2,2,0,0,0,.74.52,1.68,1.68,0,0,0,.86.11,1.76,1.76,0,0,0,.85-.12,2,2,0,0,0,.72-.51,3.27,3.27,0,0,0,.48-2V59.68Z" transform="translate(-4.86 -10.56)"/><path class="cls-2" d="M118,66.86v4.47h-2.2V59.68h3a4.74,4.74,0,0,1,3.13.87,3.54,3.54,0,0,1,1,2.12,3.69,3.69,0,0,1-.48,2.33A3.4,3.4,0,0,1,121,66.26q2.35,3.93,3.06,5.07h-2.44l-2.49-4.47Zm0-2h.71a2.46,2.46,0,0,0,1.55-.39,1.53,1.53,0,0,0,.39-.54,1.61,1.61,0,0,0,.1-.69,1.34,1.34,0,0,0-.11-.66,1.18,1.18,0,0,0-.39-.51,2.84,2.84,0,0,0-1.58-.35H118Z" transform="translate(-4.86 -10.56)"/><path class="cls-2" d="M132.45,71.33h-2.2V61.74h-2.83V59.68h7.86v2.06h-2.83Z" transform="translate(-4.86 -10.56)"/><path class="cls-2" d="M145.92,71.33h-6V59.68h6v2h-3.78v2.56h3.52v2h-3.52v3h3.78Z" transform="translate(-4.86 -10.56)"/><path class="cls-2" d="M157.52,71.33l-.76-2.78H153l-.75,2.78h-2.38l3.67-11.7h2.7l3.68,11.7Zm-1.28-4.85c-.7-2.51-1.09-3.93-1.18-4.26s-.15-.59-.19-.78c-.16.68-.6,2.36-1.35,5Z" transform="translate(-4.86 -10.56)"/><path class="cls-2" d="M172.72,59.68v7.54a4.64,4.64,0,0,1-.52,2.26A3.57,3.57,0,0,1,170.71,71a4.87,4.87,0,0,1-2.3.52,4.13,4.13,0,0,1-3.12-1.16,4.25,4.25,0,0,1-.86-1.44,4.67,4.67,0,0,1-.25-1.71v-7.5h2.2v7.13a3.21,3.21,0,0,0,.49,2,2,2,0,0,0,.73.52,1.72,1.72,0,0,0,.87.11,1.74,1.74,0,0,0,.84-.12,1.9,1.9,0,0,0,.72-.51,3.27,3.27,0,0,0,.49-2V59.68Z" transform="translate(-4.86 -10.56)"/><path class="cls-2" d="M67.46,67.48l1.81,1.28-.48-2.42,1.6-1.63-2.1-.2-.82-2.28-.83,2.28-2.1.2,1.6,1.63-.48,2.42Z" transform="translate(-4.86 -10.56)"/><path class="cls-2" d="M179.78,67.48l1.81,1.28-.48-2.42,1.59-1.63-2.1-.2-.82-2.28L179,64.51l-2.11.2,1.6,1.63L178,68.76Z" transform="translate(-4.86 -10.56)"/></svg>